<svg xmlns="http://www.w3.org/2000/svg" viewBox="0 0 250.98 50"><title>logo-wide</title><path fill="#002e6d" d="M66.31 11.05h3.66l3.22 10.52 3.48-10.56h2.93l3.48 10.56 3.22-10.52h3.57l-5.3 15.64H81.6l-3.51-10.16-3.5 10.16h-2.98l-5.3-15.64zm26.25 0h3.42v15.52h-3.42zm7.3 0h3.41v12.42h7.75v3.11H99.86V11.05zm13.73 0h3.42v12.42h7.74v3.11h-11.16V11.05zM125.75 18.86a8.26 8.26 0 0 1 16.51 0 8.26 8.26 0 0 1-16.51 0m12.93 0a4.72 4.72 0 0 0-4.7-4.88 4.64 4.64 0 0 0-4.66 4.83 4.72 4.72 0 0 0 4.7 4.88 4.64 4.64 0 0 0 4.66-4.83M143.21 11.05h3.66l3.21 10.52 3.49-10.56h2.93l3.48 10.56 3.21-10.52h3.58l-5.31 15.64h-2.97l-3.5-10.16-3.51 10.16h-2.97l-5.3-15.64zM173.99 18.86a7.89 7.89 0 0 1 8.1-8 8 8 0 0 1 6.12 2.39l-2.17 2.51a5.73 5.73 0 0 0-4-1.75 4.6 4.6 0 0 0-4.5 4.83 4.61 4.61 0 0 0 4.5 4.88 5.6 5.6 0 0 0 4.08-1.82l2.17 2.2a7.94 7.94 0 0 1-6.3 2.74 7.84 7.84 0 0 1-8-8M191.08 11.05h7.1a6.19 6.19 0 0 1 4.53 1.57 4.87 4.87 0 0 1 1.28 3.56 4.82 4.82 0 0 1-3.28 4.82l3.79 5.54h-4l-3.33-5h-2.68v5h-3.42V11.05zm6.91 7.54c1.66 0 2.62-.89 2.62-2.19 0-1.46-1-2.22-2.68-2.22h-3.39v4.46h3.45zM207.12 11.05h11.71v3.04h-8.32v3.15h7.33v3.04h-7.33v3.26h8.43v3.04h-11.82V11.05zm14.87 0h11.71v3.04h-8.32v3.15h7.32v3.04h-7.32v3.26h8.43v3.04h-11.82V11.05zm14.86 0h3.41v6.79l6.31-6.79h4.12l-6.32 6.59 6.61 8.94h-4.1l-4.82-6.61-1.8 1.86v4.75h-3.41V11.05zM49.99 25a25 25 0 1 1-25-25 25 25 0 0 1 25 25"/><path fill="#99999a" d="M34.36 13.97l-6.25 25.11h6.58l6.26-25.11h-6.59zm-12.48 0l-6.25 25.11h6.58l6.26-25.11h-6.59z"/><path fill="#fff" d="M9.34 13.97l6.26 25.11h6.58l-6.25-25.11H9.34zm12.53 0l6.26 25.11h6.59l-6.26-25.11h-6.59z"/><path d="M65.19 40.6a5.33 5.33 0 0 1 5.43-5.45 5.49 5.49 0 0 1 4.12 1.64l-1.19 1.37a4.19 4.19 0 0 0-2.95-1.31 3.55 3.55 0 0 0-3.48 3.72 3.55 3.55 0 0 0 3.48 3.73 4.12 4.12 0 0 0 3-1.35l1.19 1.2A5.44 5.44 0 0 1 70.55 46a5.3 5.3 0 0 1-5.36-5.4zm10.8 0a5.51 5.51 0 0 1 11 0 5.51 5.51 0 0 1-11 0zm9.08 0a3.61 3.61 0 0 0-3.58-3.75 3.56 3.56 0 0 0-3.5 3.69 3.6 3.6 0 0 0 3.58 3.73 3.55 3.55 0 0 0 3.5-3.67zM89.26 35.3h2l3.21 5 3.21-5h2v10.53h-1.92v-7.55l-3.33 5h-.05l-3.3-4.93v7.52h-1.82V35.3zm13.07 0h2l3.21 5 3.21-5h2v10.53h-1.85v-7.55l-3.33 5h-.06l-3.3-4.93v7.52h-1.82V35.3zm12.9 6.06V35.3h1.85v6c0 2 1 3 2.66 3s2.65-1 2.65-2.92V35.3h1.85v6c0 3.14-1.78 4.72-4.53 4.72s-4.48-1.6-4.48-4.66zm11.56-6.06h1.72l5.64 7.28V35.3h1.84v10.53h-1.55l-5.81-7.49v7.49h-1.84V35.3zm11.99 0h1.85v10.53h-1.85V35.3zm7.21 1.7h-3.34v-1.7h8.55V37h-3.34v8.82h-1.87V37zm10.31 4.68l-4.18-6.38h2.2l2.93 4.65 3-4.65h2.12l-4.18 6.33v4.2h-1.87v-4.15zM167.99 40.6a5.33 5.33 0 0 1 5.43-5.45 5.49 5.49 0 0 1 4.12 1.64l-1.19 1.37a4.19 4.19 0 0 0-2.95-1.31 3.55 3.55 0 0 0-3.41 3.69 3.55 3.55 0 0 0 3.48 3.73 4.12 4.12 0 0 0 3-1.35l1.19 1.2a5.44 5.44 0 0 1-4.27 1.88 5.3 5.3 0 0 1-5.4-5.4zM179.61 35.3h1.85v4.38h5V35.3h1.85v10.53h-1.85v-4.44h-5v4.44h-1.85V35.3zm11.27 6.06V35.3h1.85v6c0 2 1 3 2.66 3s2.65-1 2.65-2.92V35.3h1.85v6c0 3.14-1.78 4.72-4.53 4.72s-4.48-1.6-4.48-4.66zM202.44 35.3h4.7a4.25 4.25 0 0 1 3 1.05 3.18 3.18 0 0 1 .87 2.27 3.16 3.16 0 0 1-2.5 3.19l2.84 4h-2.2l-2.59-3.67h-2.27v3.67h-1.85V35.3zm4.55 5.22c1.32 0 2.17-.69 2.17-1.76 0-1.13-.81-1.75-2.18-1.75h-2.69v3.54h2.7zm5.87.08a5.33 5.33 0 0 1 5.43-5.45 5.49 5.49 0 0 1 4.12 1.64l-1.19 1.37a4.19 4.19 0 0 0-2.95-1.31 3.55 3.55 0 0 0-3.48 3.72 3.55 3.55 0 0 0 3.48 3.73 4.12 4.12 0 0 0 3-1.35l1.19 1.2a5.44 5.44 0 0 1-4.24 1.85 5.3 5.3 0 0 1-5.36-5.4zM224.43 35.3h1.85v4.38h5V35.3h1.85v10.53h-1.85v-4.44h-5v4.44h-1.85V35.3z" fill="#99999a"/></svg>