<svg xmlns="http://www.w3.org/2000/svg" width="224" height="40.7" viewBox="0 0 224 40.7"><path d="M52.5 7.5h3.2l2.8 9.1 3-9.1H64l3 9.1 2.8-9.1h3.1L68.3 21h-2.6l-3-8.8-3 8.8h-2.6L52.5 7.5zm23.7 0h3v13.4h-3V7.5zm7.2 0h3v10.8h6.7V21h-9.7V7.5zm12.9 0h3v10.8h6.7V21h-9.7V7.5zm11.5 6.8c0-3.9 3-7 7.2-7 4.1 0 7.1 3.1 7.1 6.9 0 3.8-3 7-7.2 7-4.1 0-7.1-3.1-7.1-6.9zm11.2 0c0-2.3-1.7-4.3-4.1-4.3-2.4 0-4 1.9-4 4.2 0 2.3 1.7 4.2 4.1 4.2 2.3 0 4-1.8 4-4.1zm4.9-6.8h3.2l2.8 9.1 3-9.1h2.5l3 9.1 2.8-9.1h3.1L139.7 21h-2.6l-3-8.8-3 8.8h-2.6l-4.6-13.5zm29.6 6.8c0-3.9 2.9-7 7-7 2.5 0 4.1.8 5.3 2.1l-1.9 2.2c-1-.9-2.1-1.5-3.4-1.5-2.3 0-3.9 1.9-3.9 4.2 0 2.3 1.6 4.2 3.9 4.2 1.5 0 2.5-.6 3.5-1.6l1.9 1.9c-1.4 1.5-2.9 2.4-5.5 2.4-3.9 0-6.9-3.1-6.9-6.9zm15.8-6.8h6.1c1.7 0 3 .5 3.9 1.4.7.7 1.2 1.8 1.2 3.1 0 2.2-1.2 3.5-2.9 4.2l3.3 4.8h-3.5l-2.9-4.3h-2.3V21h-3V7.5zm5.9 6.5c1.4 0 2.3-.8 2.3-1.9 0-1.3-.9-1.9-2.3-1.9h-2.9V14h2.9zm8.9-6.5h10.1v2.6H187v2.7h6.3v2.6H187v2.8h7.3v2.6h-10.2V7.5zm13.8 0H208v2.6h-7.2v2.7h6.3v2.6h-6.3v2.8h7.3v2.6h-10.2V7.5zm13.9 0h3v5.9l5.5-5.9h3.6l-5.5 5.7 5.7 7.7h-3.6l-4.2-5.7-1.6 1.6v4.1h-3V7.5z"/><path d="M54.4 33c0-1.7 1.3-3.1 3-3.1 1.1 0 1.7.4 2.3.9l-.7.9c-.5-.4-1-.7-1.6-.7-1.1 0-1.9.9-1.9 2.1 0 1.2.8 2.1 1.9 2.1.7 0 1.2-.3 1.7-.8l.7.7c-.6.6-1.3 1-2.4 1-1.8 0-3-1.4-3-3.1zm7.7 0c0-1.7 1.3-3.1 3.1-3.1s3.1 1.4 3.1 3c0 1.7-1.3 3-3.1 3s-3.1-1.2-3.1-2.9zm5.1 0c0-1.2-.8-2.1-2-2.1s-2 .9-2 2.1c0 1.1.8 2.1 2 2.1s2-.9 2-2.1zm4-2.9h1.1l1.8 2.8 1.8-2.8H77V36h-1v-4.2l-1.9 2.8-1.8-2.8V36h-1v-5.9zm8.9 0h1.1l1.8 2.8 1.8-2.8h1.1V36h-1v-4.2L83 34.5l-1.8-2.8V36h-1v-5.9zm8.9 3.4v-3.4h1v3.3c0 1.1.6 1.7 1.5 1.7s1.5-.6 1.5-1.6v-3.4h1v3.3c0 1.8-1 2.6-2.5 2.6s-2.5-.8-2.5-2.5zm8.2-3.4h1l3.2 4.1v-4.1h1V36h-.9l-3.2-4.2V36h-1v-5.9zm8.3 0h1V36h-1v-5.9zm5.8.9h-1.9v-1h4.8v1h-1.9v5h-1v-5zm7.4 2.6l-2.3-3.6h1.2l1.6 2.6 1.7-2.6h1.2l-2.3 3.5V36h-1v-2.4zm9.9-.6c0-1.7 1.3-3.1 3-3.1 1.1 0 1.7.4 2.3.9l-.7.8c-.5-.4-1-.7-1.6-.7-1.1 0-1.9.9-1.9 2.1 0 1.2.8 2.1 1.9 2.1.7 0 1.2-.3 1.7-.8l.7.7c-.6.6-1.3 1-2.4 1-1.7.1-3-1.3-3-3zm8.1-2.9h1v2.4h2.8v-2.4h1V36h-1v-2.5h-2.8V36h-1v-5.9zm8 3.4v-3.4h1v3.3c0 1.1.6 1.7 1.5 1.7s1.5-.6 1.5-1.6v-3.4h1v3.3c0 1.8-1 2.6-2.5 2.6s-2.5-.8-2.5-2.5zm8.1-3.4h2.6c.7 0 1.3.2 1.7.6.3.3.5.8.5 1.3 0 1-.6 1.5-1.4 1.8l1.6 2.2h-1.2l-1.4-2.1h-1.3V36h-1v-5.9zm2.6 2.9c.7 0 1.2-.4 1.2-1s-.5-1-1.2-1h-1.5v2h1.5zm4.9 0c0-1.7 1.3-3.1 3-3.1 1.1 0 1.7.4 2.3.9l-.7.8c-.5-.4-1-.7-1.6-.7-1.1 0-1.9.9-1.9 2.1 0 1.2.8 2.1 1.9 2.1.7 0 1.2-.3 1.7-.8l.7.7c-.6.6-1.3 1-2.4 1-1.7.1-3-1.3-3-3zm8.2-2.9h1v2.4h2.8v-2.4h1V36h-1v-2.5h-2.8V36h-1v-5.9z" fill="#99999A"/><circle fill="#243E87" cx="20.3" cy="20.3" r="20.3"/><path fill="#fff" d="M13 11.8H8.4l-.3.4 4.8 19.3.4.2H18l-5-19.9zm12.2 9.4l-2.3-9.4h-5.2l2.6 10.7 2.3 9.3h5l.2-.1-2.6-10.5z"/><path fill="#99999A" d="M32.4 11.8h-4.9l-2.3 9.4 2.6 10.5h.1l4.8-19.6c-.2-.1-.2-.2-.3-.3zM18 31.8l2.3-9.3-2.6-10.7-2.3 9.6z"/></svg>