<?xml version="1.0" ?><!DOCTYPE svg  PUBLIC '-//W3C//DTD SVG 1.1//EN'  'http://www.w3.org/Graphics/SVG/1.1/DTD/svg11.dtd'><svg height="512px" id="icon_design" style="enable-background:new 0 0 512 512;" version="1.1" viewBox="0 0 512 512" width="512px" xml:space="preserve" xmlns="http://www.w3.org/2000/svg" xmlns:xlink="http://www.w3.org/1999/xlink"><style type="text/css"><![CDATA[
	.st0{fill:none;}
	.st1{fill:#373737;}
]]></style><g><g><path class="st1" d="M411.577,106.442l-0.012-0.03c-15.868-15.9-36.828-23.951-57.673-23.951     c-20.752-0.02-41.774,7.935-57.643,23.898l-42.016,41.961c-6.856,6.795-6.856,17.856-0.041,24.704     c20.029,20.207,43.959,25.644,61.239,25.497c0.784,0,1.547,0,2.31-0.031c-0.01,0.606-0.01,1.212-0.01,1.839     c-0.095,12.389,2.822,28.205,11.812,43.792c3.753,6.492,8.446,12.963,14.604,19.088c2.216,2.238,4.944,3.471,7.788,4.245     c1.505,0.408,3.021,0.899,4.568,0.899c4.4,0,8.801-1.673,12.21-4.977l41.982-40.875c0.271-0.229,0.533-0.459,0.774-0.721v-0.031     h0.02c0.053-0.083,0.095-0.114,0.158-0.167c15.827-15.87,23.792-36.797,23.761-57.528     C435.442,143.241,427.415,122.28,411.577,106.442z M376.232,175.208c-9.785,9.775-25.644,9.775-35.408-0.032     c-9.754-9.774-9.732-25.642,0.042-35.386c9.806-9.774,25.644-9.743,35.397,0.021     C386.038,149.596,386.006,165.466,376.232,175.208z"/><path class="st1" d="M316.144,257.513l-90.061,90.07c-2.604-14.688-9.503-28.842-20.845-40.133     c-14.667-14.75-34.102-22.162-53.326-22.141h-0.062l-11.625,34.038c3.806-1.067,7.735-1.694,11.688-1.694     c11.092,0.032,21.984,4.139,30.441,12.649c8.479,8.447,12.629,19.403,12.66,30.505c-0.031,10.977-4.15,21.817-12.492,30.326     l-0.157,0.178h0.021c0,0-0.021,0.021-0.031,0.021c-8.457,8.426-19.391,12.597-30.441,12.597     c-11.133,0-22.079-4.171-30.525-12.618c-8.436-8.509-12.617-19.496-12.648-30.566c0-3.366,0.396-6.723,1.171-9.89l7.358-21.557     c0.053,0,0.105-0.031,0.158-0.031l14.038-41.136c-0.052,0.021-0.114,0.021-0.155,0.021l60.506-177.11     c2.875-8.458-1.662-17.656-10.098-20.531c-8.416-2.844-17.604,1.672-20.511,10.098L79.121,340.965l-0.344,1.129     c-1.611,6.147-2.363,12.419-2.363,18.65c0,19.298,7.423,38.699,22.11,53.388c14.677,14.719,34.069,22.13,53.388,22.11h0.115     c19.204,0,38.544-7.422,53.211-22.058c0.031-0.021,0.041-0.053,0.083-0.084l132.618-132.67c-2.415-1.464-4.746-3.136-6.816-5.237     C325.112,270.193,320.241,263.899,316.144,257.513z"/></g><rect class="st0" height="512" width="512"/></g></svg>